# File created by Blade
# Date/Time:  Thu Jan 22 15:33:01 2015
# Frame Rate: 120.000 fps
#------------------------------------------------------
:FULLY-SPECIFIED
:DEGREES
1797
root 4.962632 18.920385 5.819083 363.495262 -82.303932 -542.979761
RightUpLeg -100.586720 1.153830 1.200528
RightLeg 5.363690 -0.000000 -0.000000
RightFoot 33.021164 37.753424 -49.935160
RightToeBase -56.338497 -0.000000 0.000000
LeftUpLeg -97.510864 -7.403754 -6.344343
LeftLeg 4.168269 -0.000000 -0.000000
LeftFoot 35.903805 -3.779145 -2.111803
LeftToeBase 27.729476 -0.000000 -0.000000
Spine 22.364061 -3.394119 2.327760
RightShoulder -172.085407 35.917884 164.346310
RightArm 148.555596 57.278796 84.841910
RightForeArm 63.593631 -0.000000 104.247967
RightHand 13.564856 0.000000 -9.544438
RightHandThumb1 -24.326973 -0.000000 -32.862282
LeftShoulder -13.028306 51.933187 13.350460
LeftArm 12.856600 56.087786 -56.935745
LeftForeArm -27.651372 -0.000000 107.499607
LeftHand -24.500091 -0.000000 -4.476921
LeftHandThumb1 -26.253704 0.000000 33.147579
Head 86.194004 1.881444 -26.601903
1798
root 4.969537 18.916306 5.824035 364.138454 -82.300975 -543.836239
RightUpLeg -100.581529 1.203039 1.487156
RightLeg 5.242490 -0.000000 -0.000000
RightFoot 32.923655 37.745186 -50.020897
RightToeBase -56.449668 -0.000000 0.000000
LeftUpLeg -97.493636 -7.468376 -6.544014
LeftLeg 4.091378 -0.000000 -0.000000
LeftFoot 35.720379 -3.731419 -2.406770
LeftToeBase 27.740265 -0.000000 -0.000000
Spine 22.530809 -3.460336 2.423106
RightShoulder -172.188686 36.099206 164.392355
RightArm 148.778890 57.186800 85.092552
RightForeArm 63.583278 0.000000 104.225649
RightHand 13.717246 -0.000000 -9.480442
RightHandThumb1 -24.326973 -0.000000 -32.862282
LeftShoulder -13.118847 52.231993 13.137857
LeftArm 13.055402 55.914789 -56.770265
LeftForeArm -27.573009 -0.000000 107.501485
LeftHand -24.390133 -0.000000 -4.444037
LeftHandThumb1 -26.253704 0.000000 33.147579
Head 86.322087 2.010949 -26.507099
1799
root 4.978049 18.910817 5.829675 364.687397 -82.315701 -544.612662
RightUpLeg -100.542161 1.252234 1.684077
RightLeg 5.118482 -0.000000 -0.000000
RightFoot 32.876244 37.735872 -50.087849
RightToeBase -56.486620 -0.000000 0.000000
LeftUpLeg -97.475566 -7.514394 -6.726464
LeftLeg 4.037884 -0.000000 -0.000000
LeftFoot 35.731558 -3.789849 -2.049662
LeftToeBase 27.534846 -0.000000 -0.000000
Spine 22.715435 -3.498931 2.520674
RightShoulder -172.254021 36.385888 164.461843
RightArm 149.200710 57.089357 85.489617
RightForeArm 63.641224 -0.000000 104.175823
RightHand 13.704412 0.000000 -9.443813
RightHandThumb1 -24.326973 -0.000000 -32.862282
LeftShoulder -13.217050 52.505369 12.894066
LeftArm 13.213650 55.714865 -56.617652
LeftForeArm -27.456568 -0.000000 107.501558
LeftHand -24.291155 -0.000000 -4.450515
LeftHandThumb1 -26.253704 0.000000 33.147579
Head 86.440892 2.146200 -26.472203
1800
root 4.986132 18.904759 5.833250 365.049551 -82.333751 -545.214350
RightUpLeg -100.488518 1.300071 1.847922
RightLeg 5.028658 -0.000000 -0.000000
RightFoot 32.873045 37.744066 -50.096609
RightToeBase -56.513710 -0.000000 0.000000
LeftUpLeg -97.427390 -7.532686 -6.850538
LeftLeg 3.974118 -0.000000 -0.000000
LeftFoot 35.748604 -3.901374 -1.793808
LeftToeBase 27.662126 -0.000000 -0.000000
Spine 22.922663 -3.532085 2.577873
RightShoulder -172.269105 36.566500 164.604820
RightArm 149.459436 57.047173 85.824934
RightForeArm 63.664503 0.000000 104.187805
RightHand 13.742667 -0.000000 -9.451803
RightHandThumb1 -24.326973 -0.000000 -32.862282
LeftShoulder -13.278002 52.751814 12.695775
LeftArm 13.292450 55.508727 -56.570843
LeftForeArm -27.328441 0.000000 107.476623
LeftHand -24.174841 0.000000 -4.439033
LeftHandThumb1 -26.253704 0.000000 33.147579
Head 86.558899 2.260500 -26.375271
1801
root 4.993332 18.903643 5.840363 365.345506 -82.353084 -545.701565
RightUpLeg -100.474094 1.317170 1.827589
RightLeg 4.934988 -0.000000 -0.000000
RightFoot 33.050038 37.700016 -49.976157
RightToeBase -56.569763 -0.000000 0.000000
LeftUpLeg -97.457780 -7.554819 -6.912844
LeftLeg 3.971668 -0.000000 -0.000000
LeftFoot 35.811298 -3.916617 -1.684246
LeftToeBase 27.716678 -0.000000 -0.000000
Spine 23.075354 -3.589931 2.642292
RightShoulder -172.369209 36.615925 164.608422
RightArm 149.437884 56.948959 85.837374
RightForeArm 63.709191 0.000000 104.162963
RightHand 13.725232 -0.000000 -9.450745
RightHandThumb1 -24.326973 -0.000000 -32.862282
LeftShoulder -13.364270 52.973970 12.456240
LeftArm 13.337293 55.344010 -56.547797
LeftForeArm -27.154912 -0.000000 107.442492
LeftHand -24.002868 0.000000 -4.287714
LeftHandThumb1 -26.253704 0.000000 33.147579
Head 86.628361 2.428084 -26.285783
1802
root 5.001511 18.898553 5.841311 365.232975 -82.368672 -545.829253
RightUpLeg -100.405138 1.345796 1.923430
RightLeg 4.891691 -0.000000 -0.000000
RightFoot 33.150754 37.695307 -49.791962
RightToeBase -56.548948 -0.000000 0.000000
LeftUpLeg -97.414721 -7.547036 -6.950607
LeftLeg 3.963286 -0.000000 -0.000000
LeftFoot 35.819389 -3.862861 -1.657747
LeftToeBase 27.894491 -0.000000 -0.000000
Spine 23.295798 -3.628531 2.619763
RightShoulder -172.438649 36.743552 164.693440
RightArm 149.614164 56.848170 86.032528
RightForeArm 63.670161 0.000000 104.131160
RightHand 13.718063 -0.000000 -9.388070
RightHandThumb1 -24.326973 -0.000000 -32.862282
LeftShoulder -13.427760 53.143965 12.300694
LeftArm 13.347369 55.157851 -56.598484
LeftForeArm -26.927533 -0.000000 107.388448
LeftHand -23.907908 -0.000000 -4.294610
LeftHandThumb1 -26.253704 0.000000 33.147579
Head 86.718897 2.546324 -26.171225
1803
root 5.011106 18.896924 5.845547 365.396711 -82.365648 -546.207358
RightUpLeg -100.341285 1.331685 1.956873
RightLeg 4.847148 -0.000000 -0.000000
RightFoot 33.151386 37.672491 -49.859534
RightToeBase -56.633298 -0.000000 0.000000
LeftUpLeg -97.406120 -7.562964 -6.965739
LeftLeg 3.995276 -0.000000 -0.000000
LeftFoot 35.919818 -3.740119 -1.730958
LeftToeBase 27.771912 -0.000000 -0.000000
Spine 23.464703 -3.703447 2.637085
RightShoulder -172.550137 36.871788 164.693938
RightArm 149.800217 56.761894 86.209775
RightForeArm 63.678394 -0.000000 104.110072
RightHand 13.759203 -0.000000 -9.298209
RightHandThumb1 -24.326973 -0.000000 -32.862282
LeftShoulder -13.447657 53.295164 12.186929
LeftArm 13.259481 54.990051 -56.774464
LeftForeArm -26.701375 -0.000000 107.365809
LeftHand -23.880436 -0.000000 -4.318993
LeftHandThumb1 -26.253704 0.000000 33.147579
Head 86.743033 2.683497 -26.197110
1804
root 5.021672 18.893892 5.844712 364.994594 -82.361522 -546.042350
RightUpLeg -100.242819 1.329138 2.020412
RightLeg 4.818439 -0.000000 -0.000000
RightFoot 33.104947 37.703939 -49.891718
RightToeBase -56.611786 -0.000000 0.000000
LeftUpLeg -97.318749 -7.552919 -6.879946
LeftLeg 3.939592 -0.000000 -0.000000
LeftFoot 35.928673 -3.602336 -1.778993
LeftToeBase 27.700463 -0.000000 -0.000000
Spine 23.679617 -3.751668 2.564693
RightShoulder -172.604991 36.940965 164.769708
RightArm 149.923865 56.656818 86.345095
RightForeArm 63.691746 0.000000 104.113517
RightHand 13.807771 -0.000000 -9.247654
RightHandThumb1 -24.326973 -0.000000 -32.862282
LeftShoulder -13.464280 53.371189 12.105104
LeftArm 13.123115 54.843300 -56.963780
LeftForeArm -26.488467 0.000000 107.378343
LeftHand -23.885407 -0.000000 -4.331962
LeftHandThumb1 -26.253704 0.000000 33.147579
Head 86.823117 2.763696 -26.068955
1805
root 5.034252 18.892761 5.849470 365.097768 -82.322297 -546.362255
RightUpLeg -100.142853 1.275760 2.069783
RightLeg 4.797066 -0.000000 -0.000000
RightFoot 33.206212 37.568475 -49.701170
RightToeBase -56.628489 -0.000000 0.000000
LeftUpLeg -97.276730 -7.603823 -6.947598
LeftLeg 3.991668 -0.000000 -0.000000
LeftFoot 35.927669 -3.607226 -1.853092
LeftToeBase 27.717702 -0.000000 -0.000000
Spine 23.859429 -3.840512 2.591686
RightShoulder -172.657195 37.016214 164.783269
RightArm 150.071984 56.557329 86.484840
RightForeArm 63.648237 -0.000000 104.117778
RightHand 13.816195 -0.000000 -9.229197
RightHandThumb1 -24.326973 -0.000000 -32.862282
LeftShoulder -13.527927 53.468717 11.961473
LeftArm 13.065281 54.707189 -57.072815
LeftForeArm -26.339083 -0.000000 107.396741
LeftHand -23.869844 -0.000000 -4.342785
LeftHandThumb1 -26.253704 0.000000 33.147579
Head 86.883041 2.865380 -26.003971
1806
root 5.048743 18.892454 5.848360 364.864490 -82.283203 -546.332291
RightUpLeg -100.045463 1.242958 2.216738
RightLeg 4.778540 -0.000000 -0.000000
RightFoot 33.175564 37.574403 -49.688171
RightToeBase -56.645678 -0.000000 0.000000
LeftUpLeg -97.176254 -7.628016 -6.886479
LeftLeg 3.916860 -0.000000 -0.000000
LeftFoot 35.937169 -3.633974 -1.760400
LeftToeBase 27.898458 -0.000000 -0.000000
Spine 24.024578 -3.912999 2.549871
RightShoulder -172.719638 37.095372 164.794976
RightArm 150.226014 56.454426 86.594087
RightForeArm 63.644872 -0.000000 104.094281
RightHand 13.833532 0.000000 -9.127667
RightHandThumb1 -24.326973 -0.000000 -32.862282
LeftShoulder -13.541011 53.538029 11.883780
LeftArm 12.924617 54.588234 -57.242586
LeftForeArm -26.281036 -0.000000 107.439454
LeftHand -23.896225 -0.000000 -4.272949
LeftHandThumb1 -26.253704 0.000000 33.147579
Head 86.973230 2.928768 -25.897636
1807
root 5.064992 18.897177 5.847327 364.700811 -82.216213 -546.321885
RightUpLeg -99.955565 1.174106 2.313479
RightLeg 4.721481 -0.000000 -0.000000
RightFoot 33.146551 37.511530 -49.571299
RightToeBase -56.684976 -0.000000 0.000000
LeftUpLeg -97.114892 -7.685877 -6.868809
LeftLeg 3.854951 -0.000000 -0.000000
LeftFoot 35.893517 -3.693124 -1.869482
LeftToeBase 27.870261 -0.000000 -0.000000
Spine 24.125312 -4.001524 2.513556
RightShoulder -172.746386 37.113644 164.801445
RightArm 150.287988 56.385741 86.636538
RightForeArm 63.690353 -0.000000 104.084183
RightHand 13.832523 -0.000000 -9.051981
RightHandThumb1 -24.326973 -0.000000 -32.862282
LeftShoulder -13.560876 53.602333 11.847919
LeftArm 12.837119 54.521439 -57.370261
LeftForeArm -26.267809 -0.000000 107.478801
LeftHand -23.937841 -0.000000 -4.240443
LeftHandThumb1 -26.253704 0.000000 33.147579
Head 87.056680 2.969582 -25.812076
1808
root 5.083705 18.903178 5.843531 364.517695 -82.156714 -546.270958
RightUpLeg -99.866605 1.103552 2.375247
RightLeg 4.647972 -0.000000 -0.000000
RightFoot 33.095893 37.525674 -49.633580
RightToeBase -56.819058 -0.000000 0.000000
LeftUpLeg -97.061389 -7.729349 -6.864209
LeftLeg 3.815677 -0.000000 -0.000000
LeftFoot 35.911851 -3.710093 -1.965894
LeftToeBase 27.811514 -0.000000 -0.000000
Spine 24.196249 -4.077628 2.459515
RightShoulder -172.765376 37.084543 164.815976
RightArm 150.249611 56.337914 86.589326
RightForeArm 63.583713 -0.000000 104.112601
RightHand 13.851681 0.000000 -9.207670
RightHandThumb1 -24.326973 -0.000000 -32.862282
LeftShoulder -13.592338 53.672414 11.825631
LeftArm 12.782207 54.474168 -57.464077
LeftForeArm -26.305477 0.000000 107.509268
LeftHand -23.969030 -0.000000 -4.185361
LeftHandThumb1 -26.253704 0.000000 33.147579
Head 87.153631 2.992155 -25.708884
